HIERARCHY
ROOT Haolin_V1:Solving:Hips
{
	OFFSET 0.000000 0.000000 0.000000
	CHANNELS 6 Xposition Yposition Zposition Xrotation Yrotation Zrotation
	JOINT Haolin_V1:Solving:Spine
	{
		OFFSET 0.000000 -12.731938 2.520517
		CHANNELS 6 Xposition Yposition Zposition Xrotation Yrotation Zrotation
		JOINT Haolin_V1:Solving:Spine1
		{
			OFFSET 0.000000 -8.486854 1.496462
			CHANNELS 6 Xposition Yposition Zposition Xrotation Yrotation Zrotation
			JOINT Haolin_V1:Solving:Spine2
			{
				OFFSET 0.000000 -8.584984 0.751091
				CHANNELS 6 Xposition Yposition Zposition Xrotation Yrotation Zrotation
				JOINT Haolin_V1:Solving:Spine3
				{
					OFFSET 0.000000 -8.617775 0.000000
					CHANNELS 6 Xposition Yposition Zposition Xrotation Yrotation Zrotation
					JOINT Haolin_V1:Solving:Neck
					{
						OFFSET 0.000000 -11.080002 -1.107998
						CHANNELS 6 Xposition Yposition Zposition Xrotation Yrotation Zrotation
						JOINT Haolin_V1:Solving:Neck1
						{
							OFFSET 0.000000 -8.314011 -0.727381
							CHANNELS 6 Xposition Yposition Zposition Xrotation Yrotation Zrotation
							JOINT Haolin_V1:Solving:Head
							{
								OFFSET 0.000000 -8.218975 -1.449226
								CHANNELS 6 Xposition Yposition Zposition Xrotation Yrotation Zrotation
								JOINT Haolin_V1:Solving:HeadEnd
								{
									OFFSET 0.000000 -9.728081 0.000002
									CHANNELS 6 Xposition Yposition Zposition Xrotation Yrotation Zrotation
									End Site
									{
										OFFSET 0.000000 -9.728081 0.000002
									}
								}
							}
						}
					}
					JOINT Haolin_V1:Solving:RightShoulder
					{
						OFFSET 0.000000 -7.914288 -5.288076
						CHANNELS 6 Xposition Yposition Zposition Xrotation Yrotation Zrotation
						JOINT Haolin_V1:Solving:RightArm
						{
							OFFSET -20.201836 -0.000008 0.000000
							CHANNELS 6 Xposition Yposition Zposition Xrotation Yrotation Zrotation
							JOINT Haolin_V1:Solving:RightForeArm
							{
								OFFSET -29.446457 -0.000008 0.000000
								CHANNELS 6 Xposition Yposition Zposition Xrotation Yrotation Zrotation
								JOINT Haolin_V1:Solving:RightHand
								{
									OFFSET -23.111885 -0.000008 0.000000
									CHANNELS 6 Xposition Yposition Zposition Xrotation Yrotation Zrotation
									JOINT Haolin_V1:Solving:RightHandThumb1
									{
										OFFSET -3.824379 2.925484 -2.843767
										CHANNELS 6 Xposition Yposition Zposition Xrotation Yrotation Zrotation
										End Site
										{
											OFFSET -5.557076 0.000000 -5.608460
										}
									}
									JOINT Haolin_V1:Solving:RightHandMiddle1
									{
										OFFSET -10.198334 -0.000004 0.065374
										CHANNELS 6 Xposition Yposition Zposition Xrotation Yrotation Zrotation
										End Site
										{
											OFFSET -7.895309 -0.000004 0.000000
										}
									}
								}
							}
						}
					}
					JOINT Haolin_V1:Solving:LeftShoulder
					{
						OFFSET 0.000000 -7.914288 -5.288076
						CHANNELS 6 Xposition Yposition Zposition Xrotation Yrotation Zrotation
						JOINT Haolin_V1:Solving:LeftArm
						{
							OFFSET 20.201836 -0.000008 0.000000
							CHANNELS 6 Xposition Yposition Zposition Xrotation Yrotation Zrotation
							JOINT Haolin_V1:Solving:LeftForeArm
							{
								OFFSET 29.446457 -0.000008 0.000000
								CHANNELS 6 Xposition Yposition Zposition Xrotation Yrotation Zrotation
								JOINT Haolin_V1:Solving:LeftHand
								{
									OFFSET 23.111885 -0.000008 0.000000
									CHANNELS 6 Xposition Yposition Zposition Xrotation Yrotation Zrotation
									JOINT Haolin_V1:Solving:LeftHandThumb1
									{
										OFFSET 3.824379 2.925484 -2.843767
										CHANNELS 6 Xposition Yposition Zposition Xrotation Yrotation Zrotation
										End Site
										{
											OFFSET 5.557076 0.000000 -5.608460
										}
									}
									JOINT Haolin_V1:Solving:LeftHandMiddle1
									{
										OFFSET 10.198334 -0.000004 0.065374
										CHANNELS 6 Xposition Yposition Zposition Xrotation Yrotation Zrotation
										End Site
										{
											OFFSET 7.895309 -0.000004 0.000000
										}
									}
								}
							}
						}
					}
				}
			}
		}
	}
	JOINT Haolin_V1:Solving:RightUpLeg
	{
		OFFSET -10.695510 0.000000 0.000000
		CHANNELS 6 Xposition Yposition Zposition Xrotation Yrotation Zrotation
		JOINT Haolin_V1:Solving:RightLeg
		{
			OFFSET 0.000000 46.236332 -0.000006
			CHANNELS 6 Xposition Yposition Zposition Xrotation Yrotation Zrotation
			JOINT Haolin_V1:Solving:RightFoot
			{
				OFFSET 0.000000 41.248135 -0.000006
				CHANNELS 6 Xposition Yposition Zposition Xrotation Yrotation Zrotation
				JOINT Haolin_V1:Solving:RightForeFoot
				{
					OFFSET 0.000000 3.207336 -0.000000
					CHANNELS 6 Xposition Yposition Zposition Xrotation Yrotation Zrotation
					JOINT Haolin_V1:Solving:RightToeBase
					{
						OFFSET 0.000000 0.000000 -12.560947
						CHANNELS 6 Xposition Yposition Zposition Xrotation Yrotation Zrotation
						JOINT Haolin_V1:Solving:RightToeBaseEnd
						{
							OFFSET 0.000000 0.000000 -3.517768
							CHANNELS 6 Xposition Yposition Zposition Xrotation Yrotation Zrotation
							End Site
							{
								OFFSET 0.000000 -3.517769 0.000004
							}
						}
					}
				}
			}
		}
	}
	JOINT Haolin_V1:Solving:LeftUpLeg
	{
		OFFSET 10.695510 0.000000 0.000000
		CHANNELS 6 Xposition Yposition Zposition Xrotation Yrotation Zrotation
		JOINT Haolin_V1:Solving:LeftLeg
		{
			OFFSET 0.000000 46.236332 -0.000006
			CHANNELS 6 Xposition Yposition Zposition Xrotation Yrotation Zrotation
			JOINT Haolin_V1:Solving:LeftFoot
			{
				OFFSET 0.000000 41.248135 -0.000006
				CHANNELS 6 Xposition Yposition Zposition Xrotation Yrotation Zrotation
				JOINT Haolin_V1:Solving:LeftForeFoot
				{
					OFFSET 0.000000 3.207336 -0.000000
					CHANNELS 6 Xposition Yposition Zposition Xrotation Yrotation Zrotation
					JOINT Haolin_V1:Solving:LeftToeBase
					{
						OFFSET 0.000000 0.000000 -12.560947
						CHANNELS 6 Xposition Yposition Zposition Xrotation Yrotation Zrotation
						JOINT Haolin_V1:Solving:LeftToeBaseEnd
						{
							OFFSET 0.000000 0.000000 -3.901837
							CHANNELS 6 Xposition Yposition Zposition Xrotation Yrotation Zrotation
							End Site
							{
								OFFSET 0.000000 -3.901840 0.000004
							}
						}
					}
				}
			}
		}
	}
}
MOTION
Frames: 5
Frame Time: 0.041667
-1.198363 -56.209248 -95.148178 85.766843 -21.434020 -2.918735 0.000008 -12.731934 2.520521 12.290792 -0.381273 -4.301367 0.000001 -8.486865 1.496481 0.203136 -0.067196 -0.724128 -0.000001 -8.584981 0.751088 -4.853791 -2.697644 -0.622233 -0.000000 -8.617753 -0.000009 -2.770907 -1.176123 0.887032 -0.000006 -11.079973 -1.107993 1.375415 7.663412 -0.288762 0.000002 -8.314003 -0.727390 2.779334 13.787985 -1.113771 0.000000 -8.218925 -1.449213 11.934876 1.139989 -2.949118 -0.000001 -9.728073 0.000019 0.000004 -0.000000 0.000001 -0.000004 -7.914280 -5.288072 -0.000006 12.115086 10.932220 -20.201822 0.000008 0.000004 -28.672127 29.972919 -91.015194 -29.446461 -0.000010 -0.000003 -87.425342 -37.058148 -85.732692 -23.111885 -0.000004 -0.000007 5.699811 -10.544014 28.609757 -3.824379 2.925448 -2.843763 0.000008 -0.000014 -0.000002 -10.198318 -0.000025 0.065363 -0.000002 -0.000008 -0.000000 -0.000005 -7.914280 -5.288072 -0.000002 -7.422503 -10.664123 20.201817 0.000003 -0.000004 -12.113279 45.483544 96.920173 29.446451 -0.000016 0.000003 28.154774 12.236629 -6.471414 23.111891 -0.000028 -0.000003 0.641333 4.480616 -8.154187 3.824396 2.925479 -2.843745 0.000000 0.000002 0.000003 10.198338 -0.000016 0.065381 -0.000002 0.000001 -0.000005 -10.695509 0.000003 -0.000001 -0.071185 11.696927 5.795901 0.000003 46.236336 -0.000004 9.221726 -0.000001 0.000001 -0.000004 41.248154 -0.000004 -6.483523 -0.241821 -5.951675 0.000002 3.207329 -0.000006 0.000000 0.000001 -0.000000 0.000000 0.000009 -12.560948 9.139380 -0.000000 -0.000000 -0.000003 0.000007 -3.517771 -0.000002 -0.000001 -0.000000 10.695514 0.000004 0.000005 1.321060 -14.851502 1.405014 0.000000 46.236332 -0.000009 9.048650 -0.000005 0.000001 0.000005 41.248135 -0.000013 -5.636440 -8.583794 -4.706023 -0.000006 3.207336 -0.000002 0.000000 0.000001 -0.000000 -0.000003 0.000006 -12.560954 15.255472 -0.000003 -0.000001 -0.000008 -0.000008 -3.901832 -0.000000 0.000007 -0.000000 
-1.180779 -56.195557 -95.148201 85.753811 -21.428320 -2.917244 -0.000003 -12.731923 2.520507 12.286478 -0.380210 -4.336371 0.000005 -8.486874 1.496457 0.200675 -0.065704 -0.731630 -0.000002 -8.585000 0.751098 -4.849316 -2.695489 -0.623922 -0.000005 -8.617771 -0.000008 -2.779184 -1.176966 0.873312 -0.000004 -11.079984 -1.108010 1.359218 7.675675 -0.273138 -0.000001 -8.314013 -0.727387 2.780266 13.804844 -1.119735 0.000002 -8.218976 -1.449209 11.923337 1.137064 -2.929902 0.000000 -9.728058 0.000011 -0.000002 0.000001 0.000001 -0.000002 -7.914261 -5.288085 -0.000005 12.076262 10.898399 -20.201826 0.000019 -0.000012 -28.648682 30.157344 -90.934700 -29.446482 -0.000024 0.000014 -86.554425 -40.245401 -84.675788 -23.111885 -0.000004 -0.000017 5.180705 -9.364696 29.126990 -3.824370 2.925528 -2.843777 0.000002 -0.000002 0.000001 -10.198310 0.000015 0.065363 0.000003 0.000002 0.000001 0.000001 -7.914257 -5.288082 -0.000000 -7.403987 -10.690309 20.201836 -0.000020 -0.000005 -12.140867 45.427373 96.979001 29.446417 -0.000013 -0.000002 28.246886 12.273298 -6.515234 23.111885 -0.000011 0.000001 0.635441 4.444235 -8.145425 3.824383 2.925481 -2.843762 0.000007 -0.000002 0.000006 10.198323 0.000004 0.065374 0.000004 0.000001 0.000006 -10.695513 0.000024 -0.000008 -0.046680 11.678996 5.794148 -0.000000 46.236317 -0.000009 9.223792 0.000001 0.000002 0.000002 41.248146 -0.000015 -6.488797 -0.215435 -5.949561 0.000001 3.207329 -0.000010 0.000000 -0.000001 -0.000000 -0.000002 0.000010 -12.560949 9.176680 -0.000002 -0.000000 -0.000001 0.000000 -3.517768 0.000001 -0.000001 -0.000000 10.695503 0.000026 -0.000013 1.337209 -14.885233 1.401732 0.000011 46.236340 -0.000019 9.069714 0.000006 0.000001 0.000004 41.248138 -0.000011 -5.662570 -8.555310 -4.717024 -0.000016 3.207329 -0.000008 -0.000000 0.000000 -0.000000 -0.000008 0.000007 -12.560957 15.149452 0.000010 -0.000001 0.000002 0.000000 -3.901833 0.000001 0.000003 0.000000 
-1.160017 -56.186749 -95.146011 85.749603 -21.423848 -2.932707 -0.000003 -12.731941 2.520534 12.280366 -0.378961 -4.344862 -0.000003 -8.486880 1.496466 0.203409 -0.064657 -0.737833 0.000004 -8.584985 0.751099 -4.856727 -2.684138 -0.641988 -0.000000 -8.617778 -0.000008 -2.783830 -1.178473 0.868779 -0.000004 -11.080027 -1.107993 1.371063 7.677821 -0.276924 -0.000003 -8.313991 -0.727379 2.748306 13.795958 -1.102988 0.000002 -8.218981 -1.449230 11.891012 1.138168 -2.929150 -0.000001 -9.728096 0.000006 0.000002 0.000001 -0.000000 -0.000005 -7.914307 -5.288075 -0.000004 12.045563 10.839415 -20.201828 -0.000003 -0.000014 -28.687713 30.304805 -90.825868 -29.446463 -0.000015 0.000004 -85.784744 -42.616009 -83.787624 -23.111887 -0.000018 -0.000012 4.781642 -8.430161 29.708499 -3.824366 2.925498 -2.843769 -0.000001 -0.000007 -0.000003 -10.198319 -0.000007 0.065363 -0.000003 -0.000006 -0.000001 -0.000005 -7.914307 -5.288075 0.000001 -7.401774 -10.695015 20.201832 0.000001 -0.000004 -12.149251 45.434367 97.000987 29.446445 -0.000009 -0.000005 28.030364 12.347732 -6.495021 23.111885 -0.000017 0.000005 0.639522 4.568215 -7.978048 3.824404 2.925488 -2.843758 0.000007 -0.000002 0.000003 10.198340 0.000003 0.065375 0.000005 0.000003 -0.000001 -10.695508 -0.000009 0.000017 -0.035110 11.683536 5.818862 -0.000002 46.236336 -0.000004 9.216376 0.000001 0.000001 -0.000001 41.248131 -0.000005 -6.498910 -0.216250 -5.964607 0.000001 3.207336 -0.000001 0.000000 -0.000000 -0.000000 0.000000 -0.000018 -12.560948 9.124626 -0.000002 0.000000 -0.000001 -0.000001 -3.517783 -0.000002 -0.000001 -0.000000 10.695507 0.000003 0.000015 1.360822 -14.848550 1.431017 0.000014 46.236320 -0.000011 9.065100 -0.000003 0.000001 -0.000001 41.248146 -0.000004 -5.672949 -8.589959 -4.739023 0.000002 3.207336 -0.000006 0.000000 -0.000003 -0.000000 0.000007 -0.000001 -12.560955 15.250132 -0.000003 0.000001 -0.000000 0.000000 -3.901826 -0.000001 0.000006 -0.000001 
-1.140572 -56.179474 -95.145050 85.755935 -21.419017 -2.939425 -0.000006 -12.731917 2.520518 12.271806 -0.381414 -4.360686 0.000004 -8.486862 1.496466 0.200114 -0.064121 -0.742850 -0.000002 -8.584984 0.751107 -4.864220 -2.677879 -0.659592 0.000004 -8.617743 -0.000001 -2.787015 -1.180433 0.862582 0.000003 -11.079966 -1.108006 1.339633 7.669707 -0.268653 -0.000002 -8.314001 -0.727390 2.769530 13.786378 -1.092204 0.000000 -8.218951 -1.449233 11.859124 1.136958 -2.922403 0.000006 -9.728111 0.000002 0.000003 0.000001 0.000001 0.000001 -7.914280 -5.288088 -0.000005 12.028079 10.767726 -20.201834 0.000003 -0.000014 -28.750264 30.426935 -90.700356 -29.446476 -0.000014 0.000004 -85.138513 -44.350208 -83.062907 -23.111876 -0.000001 -0.000004 4.482164 -7.701833 30.323974 -3.824387 2.925480 -2.843753 0.000008 -0.000003 -0.000000 -10.198332 0.000006 0.065367 0.000004 0.000002 0.000002 0.000001 -7.914280 -5.288088 -0.000002 -7.404158 -10.719432 20.201834 -0.000023 -0.000005 -12.202012 45.510466 97.066591 29.446455 -0.000003 0.000002 28.067626 12.405410 -6.534775 23.111895 -0.000009 0.000014 0.638284 4.512937 -8.058839 3.824386 2.925464 -2.843763 0.000004 0.000000 -0.000001 10.198332 -0.000009 0.065364 0.000005 0.000001 -0.000003 -10.695516 0.000018 0.000000 -0.032340 11.687576 5.837099 0.000002 46.236336 -0.000006 9.206866 0.000001 -0.000000 0.000004 41.248154 -0.000005 -6.509975 -0.220372 -5.962226 0.000000 3.207336 -0.000002 -0.000000 0.000001 -0.000000 0.000000 0.000008 -12.560949 9.129506 0.000001 -0.000000 -0.000001 0.000008 -3.517778 -0.000000 -0.000001 -0.000000 10.695508 0.000016 -0.000000 1.379978 -14.801814 1.457559 0.000014 46.236328 -0.000006 9.042052 0.000004 0.000000 0.000010 41.248138 -0.000007 -5.674966 -8.645669 -4.753363 0.000001 3.207336 -0.000005 0.000000 0.000005 -0.000000 0.000010 0.000008 -12.560955 15.309306 0.000003 -0.000001 -0.000003 -0.000000 -3.901830 -0.000001 -0.000005 -0.000001 
-1.124925 -56.172279 -95.145195 85.765879 -21.421319 -2.928475 -0.000005 -12.731937 2.520514 12.260581 -0.384624 -4.396662 -0.000004 -8.486841 1.496461 0.182836 -0.062799 -0.755580 -0.000005 -8.584988 0.751096 -4.855923 -2.675554 -0.664248 -0.000002 -8.617791 -0.000003 -2.788719 -1.180519 0.843438 0.000003 -11.080012 -1.107992 1.327428 7.655569 -0.255324 0.000002 -8.314016 -0.727372 2.733646 13.766130 -1.078115 0.000003 -8.219001 -1.449227 11.865872 1.136117 -2.887434 -0.000001 -9.728134 0.000007 0.000005 0.000000 -0.000000 0.000000 -7.914299 -5.288076 -0.000006 12.019008 10.706079 -20.201830 -0.000022 -0.000007 -28.880195 30.407753 -90.577509 -29.446466 -0.000020 0.000008 -85.414343 -42.557071 -83.236852 -23.111879 -0.000026 0.000004 4.728707 -8.216366 30.063112 -3.824396 2.925518 -2.843771 0.000004 -0.000000 -0.000002 -10.198332 0.000008 0.065377 0.000004 -0.000005 0.000002 -0.000001 -7.914299 -5.288076 0.000001 -7.397049 -10.728162 20.201843 -0.000008 -0.000004 -12.248433 45.538309 97.124416 29.446449 -0.000004 0.000010 28.111092 12.452535 -6.570877 23.111887 -0.000020 0.000005 0.639621 4.497574 -8.102628 3.824387 2.925476 -2.843754 0.000007 -0.000009 0.000009 10.198325 -0.000001 0.065391 -0.000002 0.000000 -0.000002 -10.695513 0.000005 -0.000002 -0.030930 11.698421 5.837422 -0.000005 46.236343 -0.000021 9.198467 -0.000000 -0.000001 -0.000002 41.248138 -0.000006 -6.500249 -0.231649 -5.953478 -0.000003 3.207336 -0.000014 0.000000 0.000000 0.000000 0.000002 0.000001 -12.560949 9.095567 -0.000001 -0.000000 -0.000001 0.000008 -3.517769 -0.000000 -0.000001 -0.000000 10.695507 0.000014 -0.000001 1.379486 -14.781368 1.458999 0.000002 46.236328 -0.000013 9.038319 -0.000002 0.000001 0.000003 41.248131 0.000001 -5.673156 -8.661342 -4.746455 -0.000006 3.207329 -0.000011 0.000000 0.000001 0.000000 -0.000005 0.000001 -12.560966 15.283726 0.000007 0.000001 0.000002 -0.000000 -3.901838 -0.000001 0.000002 0.000000 
